<?xml version="1.0" encoding="utf-8"?>
<!-- Generator: Adobe Illustrator 23.0.3, SVG Export Plug-In . SVG Version: 6.00 Build 0)  -->
<svg version="1.1" id="Layer_1" xmlns="http://www.w3.org/2000/svg" xmlns:xlink="http://www.w3.org/1999/xlink" x="0px" y="0px"
	 viewBox="0 0 320 74.1" enable-background="new 0 0 320 74.1" xml:space="preserve">
<g>
	<path fill="#BBD7F0" d="M21.1,32.5H16v13.2h-1V32.5H9.8v-0.9h11.3V32.5z"/>
	<path fill="#BBD7F0" d="M23,33v-1.8h1V33H23z M23,45.6V35.3h1v10.3H23z"/>
	<path fill="#BBD7F0" d="M31.5,45.8c-0.7,0-1.4-0.1-2-0.4c-0.6-0.3-1.2-0.7-1.6-1.2c-0.5-0.5-0.8-1.1-1.1-1.7
		c-0.3-0.6-0.4-1.3-0.4-2.1c0-0.7,0.1-1.4,0.4-2.1c0.3-0.6,0.6-1.2,1.1-1.7c0.4-0.5,1-0.9,1.6-1.1c0.6-0.3,1.3-0.4,2-0.4
		c0.7,0,1.4,0.1,2,0.4c0.6,0.3,1.2,0.7,1.6,1.1c0.4,0.5,0.8,1,1,1.7c0.3,0.6,0.4,1.3,0.4,2c0,0.1,0,0.1,0,0.2s0,0.2,0,0.2h-9
		c0,0.6,0.2,1.1,0.4,1.7c0.2,0.5,0.5,0.9,0.9,1.3c0.4,0.4,0.8,0.7,1.3,0.9c0.5,0.2,1,0.3,1.5,0.3c0.4,0,0.7,0,1.1-0.1
		c0.3-0.1,0.7-0.2,1-0.4c0.3-0.2,0.6-0.4,0.8-0.6c0.2-0.2,0.4-0.5,0.5-0.8l0.9,0.2c-0.1,0.4-0.4,0.7-0.6,1c-0.3,0.3-0.6,0.6-1,0.8
		c-0.4,0.2-0.8,0.4-1.2,0.5C32.4,45.8,31.9,45.8,31.5,45.8z M35.5,40.1c0-0.6-0.2-1.2-0.4-1.7c-0.2-0.5-0.5-0.9-0.9-1.3
		c-0.4-0.4-0.8-0.6-1.3-0.9c-0.5-0.2-1-0.3-1.5-0.3c-0.5,0-1,0.1-1.5,0.3c-0.5,0.2-0.9,0.5-1.3,0.9c-0.4,0.4-0.7,0.8-0.9,1.3
		c-0.2,0.5-0.3,1.1-0.4,1.7H35.5z"/>
	<path fill="#BBD7F0" d="M43.5,36.2c-0.9,0-1.7,0.3-2.4,0.8c-0.7,0.5-1.2,1.2-1.5,2.1v6.4h-1V35.3h1v2.5c0.4-0.7,0.8-1.3,1.4-1.8
		c0.6-0.5,1.2-0.7,1.9-0.8c0.1,0,0.3,0,0.4,0c0.1,0,0.2,0,0.3,0V36.2z"/>
	<path fill="#BBD7F0" d="M50.3,36.2c-0.9,0-1.7,0.3-2.4,0.8c-0.7,0.5-1.2,1.2-1.5,2.1v6.4h-1V35.3h1v2.5c0.4-0.7,0.8-1.3,1.4-1.8
		c0.6-0.5,1.2-0.7,1.9-0.8c0.1,0,0.3,0,0.4,0c0.1,0,0.2,0,0.3,0V36.2z"/>
	<path fill="#BBD7F0" d="M54.6,45.8c-0.5,0-0.9-0.1-1.3-0.2c-0.4-0.2-0.8-0.4-1.1-0.7c-0.3-0.3-0.6-0.6-0.7-1
		c-0.2-0.4-0.3-0.8-0.3-1.3s0.1-0.9,0.3-1.2c0.2-0.4,0.5-0.7,0.9-1c0.4-0.3,0.8-0.5,1.4-0.6c0.5-0.2,1.1-0.2,1.7-0.2
		c0.6,0,1.1,0,1.7,0.1c0.6,0.1,1.1,0.2,1.5,0.4v-1c0-1-0.3-1.8-0.8-2.3c-0.6-0.6-1.3-0.9-2.3-0.9c-0.5,0-1,0.1-1.6,0.3
		c-0.6,0.2-1.1,0.5-1.7,0.9l-0.4-0.7c1.3-0.9,2.6-1.3,3.8-1.3c1.2,0,2.2,0.4,2.9,1.1c0.7,0.7,1.1,1.7,1.1,3v5c0,0.3,0.1,0.5,0.4,0.5
		v0.9c-0.1,0-0.1,0-0.2,0c-0.1,0-0.1,0-0.2,0c-0.3,0-0.5-0.1-0.6-0.3c-0.2-0.2-0.3-0.4-0.3-0.6v-0.9c-0.5,0.6-1.1,1.1-1.8,1.4
		C56.2,45.7,55.4,45.8,54.6,45.8z M54.7,45c0.8,0,1.5-0.1,2.1-0.4c0.6-0.3,1.1-0.7,1.5-1.1c0.2-0.3,0.3-0.5,0.3-0.8v-1.8
		c-0.5-0.2-1-0.3-1.5-0.4c-0.5-0.1-1.1-0.1-1.6-0.1c-0.5,0-1,0.1-1.4,0.2c-0.4,0.1-0.8,0.3-1.1,0.5c-0.3,0.2-0.5,0.4-0.7,0.7
		c-0.2,0.3-0.2,0.6-0.2,0.9c0,0.3,0.1,0.7,0.2,1c0.1,0.3,0.3,0.6,0.6,0.8c0.2,0.2,0.5,0.4,0.8,0.5C54,45,54.4,45,54.7,45z"/>
	<path fill="#BBD7F0" d="M66.9,45.8c-0.7,0-1.4-0.1-2-0.4c-0.6-0.3-1.1-0.7-1.6-1.2c-0.4-0.5-0.8-1.1-1-1.7c-0.2-0.6-0.4-1.3-0.4-2
		c0-0.7,0.1-1.4,0.4-2c0.2-0.6,0.6-1.2,1-1.7c0.4-0.5,0.9-0.9,1.5-1.2c0.6-0.3,1.2-0.4,1.9-0.4c0.4,0,0.9,0.1,1.3,0.2
		c0.4,0.1,0.8,0.3,1.1,0.5c0.3,0.2,0.7,0.5,0.9,0.8c0.3,0.3,0.5,0.6,0.7,0.9v-6.4h1v13.1c0,0.3,0.1,0.5,0.4,0.5v0.9
		c-0.1,0-0.1,0-0.2,0c-0.1,0-0.1,0-0.2,0c-0.3,0-0.5-0.1-0.7-0.3c-0.2-0.2-0.3-0.4-0.3-0.6v-1.1c-0.4,0.7-1,1.2-1.7,1.6
		C68.4,45.6,67.7,45.8,66.9,45.8z M67.1,44.9c0.4,0,0.7-0.1,1.1-0.2c0.4-0.1,0.8-0.3,1.1-0.6c0.3-0.3,0.7-0.6,0.9-0.9
		c0.3-0.3,0.4-0.7,0.4-1.1v-3.4c-0.1-0.4-0.4-0.7-0.6-1.1c-0.3-0.3-0.6-0.6-0.9-0.9c-0.3-0.2-0.7-0.4-1.1-0.6
		c-0.4-0.1-0.8-0.2-1.1-0.2c-0.6,0-1.1,0.1-1.6,0.4c-0.5,0.3-0.9,0.6-1.2,1c-0.3,0.4-0.6,0.9-0.8,1.4C63,39.4,63,40,63,40.5
		c0,0.6,0.1,1.2,0.3,1.7c0.2,0.5,0.5,1,0.9,1.4c0.4,0.4,0.8,0.7,1.3,1C66,44.8,66.5,44.9,67.1,44.9z"/>
	<path fill="#BBD7F0" d="M79.2,45.8c-0.7,0-1.4-0.1-2-0.4c-0.6-0.3-1.2-0.7-1.6-1.2c-0.5-0.5-0.8-1.1-1.1-1.7
		c-0.3-0.6-0.4-1.3-0.4-2.1c0-0.7,0.1-1.4,0.4-2.1c0.3-0.6,0.6-1.2,1.1-1.7c0.4-0.5,1-0.9,1.6-1.1c0.6-0.3,1.3-0.4,2-0.4
		c0.7,0,1.4,0.1,2,0.4s1.2,0.7,1.6,1.1c0.4,0.5,0.8,1,1,1.7c0.3,0.6,0.4,1.3,0.4,2c0,0.1,0,0.1,0,0.2s0,0.2,0,0.2h-9
		c0,0.6,0.2,1.1,0.4,1.7c0.2,0.5,0.5,0.9,0.9,1.3c0.4,0.4,0.8,0.7,1.3,0.9c0.5,0.2,1,0.3,1.5,0.3c0.4,0,0.7,0,1.1-0.1
		c0.3-0.1,0.7-0.2,1-0.4c0.3-0.2,0.6-0.4,0.8-0.6c0.2-0.2,0.4-0.5,0.5-0.8l0.9,0.2c-0.1,0.4-0.4,0.7-0.6,1c-0.3,0.3-0.6,0.6-1,0.8
		c-0.4,0.2-0.8,0.4-1.2,0.5C80.2,45.8,79.7,45.8,79.2,45.8z M83.3,40.1c0-0.6-0.2-1.2-0.4-1.7c-0.2-0.5-0.5-0.9-0.9-1.3
		c-0.4-0.4-0.8-0.6-1.3-0.9c-0.5-0.2-1-0.3-1.5-0.3s-1,0.1-1.5,0.3c-0.5,0.2-0.9,0.5-1.3,0.9c-0.4,0.4-0.7,0.8-0.9,1.3
		c-0.2,0.5-0.3,1.1-0.4,1.7H83.3z"/>
	<path fill="#BBD7F0" d="M94.8,45.6h-1v-5.7c0-1.3-0.2-2.3-0.6-2.9c-0.4-0.6-1-0.9-1.8-0.9c-0.4,0-0.9,0.1-1.3,0.2
		c-0.4,0.2-0.8,0.4-1.2,0.7c-0.4,0.3-0.7,0.6-1,1c-0.3,0.4-0.5,0.8-0.6,1.3v6.4h-1V35.3h0.9v2.5c0.2-0.4,0.5-0.8,0.8-1.1
		c0.3-0.3,0.7-0.6,1-0.8c0.4-0.2,0.8-0.4,1.2-0.5c0.4-0.1,0.9-0.2,1.3-0.2c1.1,0,1.9,0.4,2.4,1.2c0.5,0.8,0.7,1.9,0.7,3.4V45.6z"/>
	<path fill="#BBD7F0" d="M102.3,45.1c-0.1,0-0.1,0.1-0.3,0.1c-0.1,0.1-0.3,0.1-0.5,0.2c-0.2,0.1-0.4,0.1-0.6,0.2
		c-0.2,0.1-0.5,0.1-0.8,0.1c-0.3,0-0.5,0-0.8-0.1c-0.2-0.1-0.5-0.2-0.6-0.4c-0.2-0.2-0.3-0.3-0.4-0.6c-0.1-0.2-0.2-0.5-0.2-0.8v-7.8
		h-1.4v-0.8h1.4v-3.5h1v3.5h2.4v0.8h-2.4v7.5c0,0.4,0.1,0.7,0.4,0.9c0.3,0.2,0.6,0.3,0.9,0.3c0.4,0,0.8-0.1,1.1-0.2
		c0.3-0.1,0.5-0.2,0.5-0.3L102.3,45.1z"/>
	<path fill="#BBD7F0" d="M108.9,36.2c-0.9,0-1.7,0.3-2.4,0.8c-0.7,0.5-1.2,1.2-1.5,2.1v6.4h-1V35.3h1v2.5c0.4-0.7,0.8-1.3,1.4-1.8
		c0.6-0.5,1.2-0.7,1.9-0.8c0.1,0,0.3,0,0.4,0c0.1,0,0.2,0,0.3,0V36.2z"/>
	<path fill="#BBD7F0" d="M114.6,45.8c-0.7,0-1.4-0.1-2-0.4c-0.6-0.3-1.1-0.7-1.6-1.2c-0.4-0.5-0.8-1.1-1.1-1.7
		c-0.3-0.6-0.4-1.3-0.4-2c0-0.7,0.1-1.4,0.4-2.1c0.3-0.6,0.6-1.2,1.1-1.7c0.4-0.5,1-0.9,1.6-1.2c0.6-0.3,1.3-0.4,2-0.4
		c0.7,0,1.4,0.1,2,0.4c0.6,0.3,1.1,0.7,1.6,1.2c0.5,0.5,0.8,1.1,1.1,1.7c0.3,0.6,0.4,1.3,0.4,2.1c0,0.7-0.1,1.4-0.4,2
		c-0.3,0.6-0.6,1.2-1.1,1.7s-1,0.9-1.6,1.2C116,45.7,115.3,45.8,114.6,45.8z M110.6,40.5c0,0.6,0.1,1.2,0.3,1.7
		c0.2,0.5,0.5,1,0.9,1.4c0.4,0.4,0.8,0.7,1.3,0.9s1,0.3,1.6,0.3c0.6,0,1.1-0.1,1.6-0.3s0.9-0.6,1.3-1c0.4-0.4,0.7-0.9,0.9-1.4
		c0.2-0.5,0.3-1.1,0.3-1.7c0-0.6-0.1-1.2-0.3-1.7c-0.2-0.5-0.5-1-0.9-1.4c-0.4-0.4-0.8-0.7-1.3-1c-0.5-0.2-1-0.4-1.6-0.4
		c-0.6,0-1.1,0.1-1.6,0.4c-0.5,0.2-0.9,0.6-1.3,1c-0.4,0.4-0.7,0.9-0.9,1.4C110.7,39.4,110.6,39.9,110.6,40.5z"/>
	<path fill="#BBD7F0" d="M131.2,31.6h0.9l5.9,14.1h-1.1l-2-4.6h-6.7l-2,4.6h-1.1L131.2,31.6z M134.7,40.2l-3.1-7.4l-3.1,7.4H134.7z"
		/>
	<path fill="#BBD7F0" d="M144.7,36.2c-0.9,0-1.7,0.3-2.4,0.8c-0.7,0.5-1.2,1.2-1.5,2.1v6.4h-1V35.3h1v2.5c0.4-0.7,0.8-1.3,1.4-1.8
		c0.6-0.5,1.2-0.7,1.9-0.8c0.1,0,0.3,0,0.4,0c0.1,0,0.2,0,0.3,0V36.2z"/>
	<path fill="#BBD7F0" d="M145.4,40.4c0-0.7,0.1-1.4,0.4-2.1c0.3-0.6,0.6-1.2,1.1-1.7c0.4-0.5,1-0.9,1.6-1.1c0.6-0.3,1.3-0.4,2-0.4
		c0.9,0,1.8,0.2,2.5,0.6c0.7,0.4,1.2,1,1.6,1.8l-1,0.3c-0.3-0.6-0.7-1-1.3-1.3c-0.6-0.3-1.2-0.5-1.9-0.5c-0.6,0-1.1,0.1-1.6,0.3
		c-0.5,0.2-0.9,0.5-1.3,0.9c-0.4,0.4-0.7,0.9-0.9,1.4c-0.2,0.5-0.3,1.1-0.3,1.7c0,0.6,0.1,1.2,0.3,1.8c0.2,0.5,0.5,1,0.9,1.4
		c0.4,0.4,0.8,0.7,1.3,1c0.5,0.2,1,0.4,1.6,0.4c0.4,0,0.7-0.1,1.1-0.2c0.3-0.1,0.7-0.2,1-0.4c0.3-0.2,0.6-0.4,0.8-0.6
		c0.2-0.2,0.4-0.5,0.4-0.7l1,0.3c-0.1,0.4-0.3,0.7-0.6,1c-0.3,0.3-0.6,0.6-1,0.8c-0.4,0.2-0.8,0.4-1.2,0.5c-0.4,0.1-0.9,0.2-1.4,0.2
		c-0.7,0-1.4-0.1-2-0.4c-0.6-0.3-1.2-0.7-1.6-1.2c-0.5-0.5-0.8-1.1-1.1-1.7C145.5,41.9,145.4,41.2,145.4,40.4z"/>
	<path fill="#BBD7F0" d="M165.3,45.6h-1v-5.7c0-2.5-0.9-3.8-2.6-3.8c-0.4,0-0.8,0.1-1.2,0.2c-0.4,0.2-0.8,0.4-1.1,0.7
		c-0.4,0.3-0.7,0.6-0.9,1s-0.5,0.8-0.6,1.3v6.4h-1V31.2h1v6.6c0.4-0.8,1-1.4,1.8-1.9c0.7-0.5,1.5-0.7,2.4-0.7c0.6,0,1.1,0.1,1.5,0.3
		s0.7,0.5,1,0.9c0.3,0.4,0.5,0.9,0.6,1.4s0.2,1.2,0.2,1.9V45.6z"/>
	<path fill="#BBD7F0" d="M170.8,45.8c-0.5,0-0.9-0.1-1.3-0.2c-0.4-0.2-0.8-0.4-1.1-0.7c-0.3-0.3-0.6-0.6-0.7-1
		c-0.2-0.4-0.3-0.8-0.3-1.3s0.1-0.9,0.3-1.2c0.2-0.4,0.5-0.7,0.9-1c0.4-0.3,0.8-0.5,1.4-0.6c0.5-0.2,1.1-0.2,1.7-0.2
		c0.6,0,1.1,0,1.7,0.1c0.6,0.1,1.1,0.2,1.5,0.4v-1c0-1-0.3-1.8-0.8-2.3c-0.6-0.6-1.3-0.9-2.3-0.9c-0.5,0-1,0.1-1.6,0.3
		c-0.6,0.2-1.1,0.5-1.7,0.9l-0.4-0.7c1.3-0.9,2.6-1.3,3.8-1.3c1.2,0,2.2,0.4,2.9,1.1c0.7,0.7,1.1,1.7,1.1,3v5c0,0.3,0.1,0.5,0.4,0.5
		v0.9c-0.1,0-0.1,0-0.2,0c-0.1,0-0.1,0-0.2,0c-0.3,0-0.5-0.1-0.6-0.3c-0.2-0.2-0.3-0.4-0.3-0.6v-0.9c-0.5,0.6-1.1,1.1-1.8,1.4
		C172.5,45.7,171.7,45.8,170.8,45.8z M171,45c0.8,0,1.5-0.1,2.1-0.4c0.6-0.3,1.1-0.7,1.5-1.1c0.2-0.3,0.3-0.5,0.3-0.8v-1.8
		c-0.5-0.2-1-0.3-1.5-0.4c-0.5-0.1-1.1-0.1-1.6-0.1c-0.5,0-1,0.1-1.4,0.2c-0.4,0.1-0.8,0.3-1.1,0.5c-0.3,0.2-0.5,0.4-0.7,0.7
		c-0.2,0.3-0.2,0.6-0.2,0.9c0,0.3,0.1,0.7,0.2,1c0.1,0.3,0.3,0.6,0.6,0.8c0.2,0.2,0.5,0.4,0.8,0.5C170.3,45,170.7,45,171,45z"/>
	<path fill="#BBD7F0" d="M183.3,45.8c-0.7,0-1.4-0.1-2-0.4c-0.6-0.3-1.2-0.7-1.6-1.2c-0.5-0.5-0.8-1.1-1.1-1.7
		c-0.3-0.6-0.4-1.3-0.4-2.1c0-0.7,0.1-1.4,0.4-2.1c0.3-0.6,0.6-1.2,1.1-1.7c0.4-0.5,1-0.9,1.6-1.1c0.6-0.3,1.3-0.4,2-0.4
		c0.7,0,1.4,0.1,2,0.4s1.2,0.7,1.6,1.1s0.8,1,1,1.7c0.3,0.6,0.4,1.3,0.4,2c0,0.1,0,0.1,0,0.2s0,0.2,0,0.2h-9c0,0.6,0.2,1.1,0.4,1.7
		c0.2,0.5,0.5,0.9,0.9,1.3c0.4,0.4,0.8,0.7,1.3,0.9s1,0.3,1.5,0.3c0.4,0,0.7,0,1.1-0.1c0.3-0.1,0.7-0.2,1-0.4
		c0.3-0.2,0.6-0.4,0.8-0.6c0.2-0.2,0.4-0.5,0.5-0.8l0.9,0.2c-0.1,0.4-0.4,0.7-0.6,1c-0.3,0.3-0.6,0.6-1,0.8
		c-0.4,0.2-0.8,0.4-1.2,0.5C184.3,45.8,183.8,45.8,183.3,45.8z M187.4,40.1c0-0.6-0.2-1.2-0.4-1.7c-0.2-0.5-0.5-0.9-0.9-1.3
		c-0.4-0.4-0.8-0.6-1.3-0.9c-0.5-0.2-1-0.3-1.5-0.3s-1,0.1-1.5,0.3c-0.5,0.2-0.9,0.5-1.3,0.9c-0.4,0.4-0.7,0.8-0.9,1.3
		c-0.2,0.5-0.3,1.1-0.4,1.7H187.4z"/>
	<path fill="#BBD7F0" d="M194.8,45.8c-0.7,0-1.4-0.1-2-0.4c-0.6-0.3-1.1-0.7-1.6-1.2c-0.4-0.5-0.8-1.1-1.1-1.7
		c-0.3-0.6-0.4-1.3-0.4-2c0-0.7,0.1-1.4,0.4-2.1c0.3-0.6,0.6-1.2,1.1-1.7c0.4-0.5,1-0.9,1.6-1.2c0.6-0.3,1.3-0.4,2-0.4
		c0.7,0,1.4,0.1,2,0.4s1.1,0.7,1.6,1.2c0.5,0.5,0.8,1.1,1.1,1.7c0.3,0.6,0.4,1.3,0.4,2.1c0,0.7-0.1,1.4-0.4,2
		c-0.3,0.6-0.6,1.2-1.1,1.7s-1,0.9-1.6,1.2C196.2,45.7,195.5,45.8,194.8,45.8z M190.8,40.5c0,0.6,0.1,1.2,0.3,1.7
		c0.2,0.5,0.5,1,0.9,1.4c0.4,0.4,0.8,0.7,1.3,0.9c0.5,0.2,1,0.3,1.6,0.3c0.6,0,1.1-0.1,1.6-0.3c0.5-0.2,0.9-0.6,1.3-1
		c0.4-0.4,0.7-0.9,0.9-1.4c0.2-0.5,0.3-1.1,0.3-1.7c0-0.6-0.1-1.2-0.3-1.7c-0.2-0.5-0.5-1-0.9-1.4c-0.4-0.4-0.8-0.7-1.3-1
		c-0.5-0.2-1-0.4-1.6-0.4c-0.6,0-1.1,0.1-1.6,0.4c-0.5,0.2-0.9,0.6-1.3,1c-0.4,0.4-0.7,0.9-0.9,1.4
		C190.9,39.4,190.8,39.9,190.8,40.5z"/>
	<path fill="#BBD7F0" d="M202.3,31.2h1v12.4c0,0.4,0.1,0.7,0.3,0.9c0.2,0.2,0.5,0.3,0.9,0.3c0.1,0,0.3,0,0.5,0
		c0.2,0,0.4-0.1,0.6-0.1l0.2,0.8c-0.2,0.1-0.5,0.2-0.8,0.2c-0.3,0.1-0.6,0.1-0.9,0.1c-0.6,0-1-0.2-1.3-0.5c-0.3-0.3-0.5-0.8-0.5-1.4
		V31.2z"/>
	<path fill="#BBD7F0" d="M211.7,45.8c-0.7,0-1.4-0.1-2-0.4c-0.6-0.3-1.1-0.7-1.6-1.2c-0.4-0.5-0.8-1.1-1.1-1.7
		c-0.3-0.6-0.4-1.3-0.4-2c0-0.7,0.1-1.4,0.4-2.1c0.3-0.6,0.6-1.2,1.1-1.7c0.4-0.5,1-0.9,1.6-1.2c0.6-0.3,1.3-0.4,2-0.4
		c0.7,0,1.4,0.1,2,0.4c0.6,0.3,1.1,0.7,1.6,1.2c0.5,0.5,0.8,1.1,1.1,1.7c0.3,0.6,0.4,1.3,0.4,2.1c0,0.7-0.1,1.4-0.4,2
		c-0.3,0.6-0.6,1.2-1.1,1.7c-0.4,0.5-1,0.9-1.6,1.2C213,45.7,212.4,45.8,211.7,45.8z M207.6,40.5c0,0.6,0.1,1.2,0.3,1.7
		c0.2,0.5,0.5,1,0.9,1.4c0.4,0.4,0.8,0.7,1.3,0.9c0.5,0.2,1,0.3,1.6,0.3c0.6,0,1.1-0.1,1.6-0.3c0.5-0.2,0.9-0.6,1.3-1
		c0.4-0.4,0.7-0.9,0.9-1.4c0.2-0.5,0.3-1.1,0.3-1.7c0-0.6-0.1-1.2-0.3-1.7c-0.2-0.5-0.5-1-0.9-1.4c-0.4-0.4-0.8-0.7-1.3-1
		c-0.5-0.2-1-0.4-1.6-0.4c-0.6,0-1.1,0.1-1.6,0.4c-0.5,0.2-0.9,0.6-1.3,1c-0.4,0.4-0.7,0.9-0.9,1.4
		C207.7,39.4,207.6,39.9,207.6,40.5z"/>
	<path fill="#BBD7F0" d="M223.2,45.8c-0.7,0-1.4-0.1-2-0.4c-0.6-0.3-1.1-0.7-1.5-1.2s-0.8-1.1-1-1.7c-0.2-0.6-0.4-1.3-0.4-2
		c0-0.7,0.1-1.4,0.3-2c0.2-0.6,0.6-1.2,1-1.7c0.4-0.5,0.9-0.9,1.5-1.2c0.6-0.3,1.2-0.4,2-0.4c0.9,0,1.7,0.2,2.3,0.7
		c0.7,0.5,1.2,1,1.7,1.7v-2.2h0.9v10.5c0,0.7-0.1,1.3-0.4,1.8c-0.3,0.5-0.6,1-1.1,1.3c-0.4,0.3-1,0.6-1.5,0.8
		c-0.6,0.2-1.2,0.3-1.9,0.3c-0.6,0-1.1-0.1-1.6-0.2c-0.5-0.1-0.9-0.3-1.3-0.5c-0.4-0.2-0.7-0.5-1-0.8c-0.3-0.3-0.5-0.6-0.7-1
		l0.7-0.5c0.4,0.7,1,1.2,1.7,1.5c0.7,0.3,1.4,0.5,2.2,0.5c0.5,0,1-0.1,1.5-0.2c0.5-0.1,0.9-0.4,1.2-0.6c0.3-0.3,0.6-0.6,0.8-1.1
		c0.2-0.4,0.3-0.9,0.3-1.5v-2.3c-0.4,0.7-1,1.2-1.7,1.6C224.7,45.6,224,45.8,223.2,45.8z M223.5,44.9c0.4,0,0.9-0.1,1.3-0.2
		s0.8-0.4,1.1-0.6c0.3-0.3,0.6-0.6,0.8-0.9c0.2-0.3,0.4-0.7,0.4-1v-3.4c-0.2-0.4-0.4-0.8-0.6-1.1c-0.3-0.3-0.6-0.6-0.9-0.9
		c-0.3-0.2-0.7-0.4-1.1-0.6c-0.4-0.1-0.8-0.2-1.2-0.2c-0.6,0-1.2,0.1-1.7,0.4c-0.5,0.3-0.9,0.6-1.2,1c-0.3,0.4-0.6,0.9-0.8,1.4
		c-0.2,0.5-0.3,1.1-0.3,1.6c0,0.6,0.1,1.2,0.3,1.7c0.2,0.5,0.5,1,0.9,1.4c0.4,0.4,0.8,0.7,1.3,1C222.4,44.8,222.9,44.9,223.5,44.9z"
		/>
	<path fill="#BBD7F0" d="M231.2,33v-1.8h1V33H231.2z M231.2,45.6V35.3h1v10.3H231.2z"/>
	<path fill="#BBD7F0" d="M234.6,40.4c0-0.7,0.1-1.4,0.4-2.1c0.2-0.6,0.6-1.2,1-1.7c0.4-0.5,1-0.9,1.6-1.1c0.6-0.3,1.3-0.4,2-0.4
		c0.9,0,1.8,0.2,2.5,0.6c0.7,0.4,1.2,1,1.6,1.8l-1,0.3c-0.3-0.6-0.7-1-1.3-1.3c-0.6-0.3-1.2-0.5-1.9-0.5c-0.6,0-1.1,0.1-1.6,0.3
		c-0.5,0.2-0.9,0.5-1.3,0.9c-0.4,0.4-0.7,0.9-0.9,1.4c-0.2,0.5-0.3,1.1-0.3,1.7c0,0.6,0.1,1.2,0.3,1.8s0.5,1,0.9,1.4s0.8,0.7,1.3,1
		c0.5,0.2,1,0.4,1.6,0.4c0.4,0,0.7-0.1,1.1-0.2c0.3-0.1,0.7-0.2,1-0.4c0.3-0.2,0.6-0.4,0.8-0.6c0.2-0.2,0.4-0.5,0.4-0.7l1,0.3
		c-0.1,0.4-0.3,0.7-0.6,1s-0.6,0.6-1,0.8c-0.4,0.2-0.8,0.4-1.2,0.5c-0.4,0.1-0.9,0.2-1.4,0.2c-0.7,0-1.4-0.1-2-0.4
		c-0.6-0.3-1.2-0.7-1.6-1.2c-0.5-0.5-0.8-1.1-1.1-1.7C234.7,41.9,234.6,41.2,234.6,40.4z"/>
	<path fill="#BBD7F0" d="M248.6,45.8c-0.5,0-0.9-0.1-1.3-0.2c-0.4-0.2-0.8-0.4-1.1-0.7c-0.3-0.3-0.6-0.6-0.7-1
		c-0.2-0.4-0.3-0.8-0.3-1.3s0.1-0.9,0.3-1.2c0.2-0.4,0.5-0.7,0.9-1c0.4-0.3,0.8-0.5,1.4-0.6c0.5-0.2,1.1-0.2,1.7-0.2
		c0.6,0,1.1,0,1.7,0.1c0.6,0.1,1.1,0.2,1.5,0.4v-1c0-1-0.3-1.8-0.8-2.3c-0.6-0.6-1.3-0.9-2.3-0.9c-0.5,0-1,0.1-1.6,0.3
		c-0.6,0.2-1.1,0.5-1.7,0.9l-0.4-0.7c1.3-0.9,2.6-1.3,3.8-1.3c1.2,0,2.2,0.4,2.9,1.1c0.7,0.7,1.1,1.7,1.1,3v5c0,0.3,0.1,0.5,0.4,0.5
		v0.9c-0.1,0-0.1,0-0.2,0c-0.1,0-0.1,0-0.2,0c-0.3,0-0.5-0.1-0.6-0.3c-0.2-0.2-0.3-0.4-0.3-0.6v-0.9c-0.5,0.6-1.1,1.1-1.8,1.4
		C250.3,45.7,249.5,45.8,248.6,45.8z M248.8,45c0.8,0,1.5-0.1,2.1-0.4c0.6-0.3,1.1-0.7,1.5-1.1c0.2-0.3,0.3-0.5,0.3-0.8v-1.8
		c-0.5-0.2-1-0.3-1.5-0.4c-0.5-0.1-1-0.1-1.6-0.1c-0.5,0-1,0.1-1.4,0.2c-0.4,0.1-0.8,0.3-1.1,0.5c-0.3,0.2-0.5,0.4-0.7,0.7
		c-0.2,0.3-0.2,0.6-0.2,0.9c0,0.3,0.1,0.7,0.2,1s0.3,0.6,0.6,0.8c0.2,0.2,0.5,0.4,0.8,0.5C248.1,45,248.5,45,248.8,45z"/>
	<path fill="#BBD7F0" d="M256.8,31.2h1v12.4c0,0.4,0.1,0.7,0.3,0.9c0.2,0.2,0.5,0.3,0.9,0.3c0.1,0,0.3,0,0.5,0
		c0.2,0,0.4-0.1,0.6-0.1l0.2,0.8c-0.2,0.1-0.5,0.2-0.8,0.2c-0.3,0.1-0.6,0.1-0.9,0.1c-0.6,0-1-0.2-1.3-0.5s-0.5-0.8-0.5-1.4V31.2z"
		/>
	<path fill="#BBD7F0" d="M266.6,45.6V31.6h5.8c0.6,0,1.1,0.1,1.6,0.4c0.5,0.3,0.9,0.6,1.3,1c0.4,0.4,0.6,0.9,0.9,1.4s0.3,1,0.3,1.6
		c0,0.6-0.1,1.1-0.3,1.6c-0.2,0.5-0.5,1-0.8,1.4c-0.4,0.4-0.8,0.7-1.3,1s-1,0.4-1.6,0.4h-4.9v5.3H266.6z M267.7,39.4h4.9
		c0.5,0,0.9-0.1,1.2-0.3c0.4-0.2,0.7-0.4,0.9-0.8c0.3-0.3,0.5-0.7,0.6-1.1c0.1-0.4,0.2-0.8,0.2-1.3c0-0.5-0.1-0.9-0.2-1.3
		c-0.2-0.4-0.4-0.8-0.7-1.1c-0.3-0.3-0.6-0.6-1-0.8c-0.4-0.2-0.8-0.3-1.2-0.3h-4.7V39.4z"/>
	<path fill="#BBD7F0" d="M281.1,45.8c-0.5,0-0.9-0.1-1.3-0.2c-0.4-0.2-0.8-0.4-1.1-0.7c-0.3-0.3-0.6-0.6-0.7-1
		c-0.2-0.4-0.3-0.8-0.3-1.3s0.1-0.9,0.3-1.2c0.2-0.4,0.5-0.7,0.9-1c0.4-0.3,0.8-0.5,1.4-0.6c0.5-0.2,1.1-0.2,1.7-0.2
		c0.6,0,1.1,0,1.7,0.1c0.6,0.1,1.1,0.2,1.5,0.4v-1c0-1-0.3-1.8-0.8-2.3c-0.6-0.6-1.3-0.9-2.3-0.9c-0.5,0-1,0.1-1.6,0.3
		c-0.6,0.2-1.1,0.5-1.7,0.9l-0.4-0.7c1.3-0.9,2.6-1.3,3.8-1.3c1.2,0,2.2,0.4,2.9,1.1c0.7,0.7,1.1,1.7,1.1,3v5c0,0.3,0.1,0.5,0.4,0.5
		v0.9c-0.1,0-0.1,0-0.2,0c-0.1,0-0.1,0-0.2,0c-0.3,0-0.5-0.1-0.6-0.3c-0.2-0.2-0.3-0.4-0.3-0.6v-0.9c-0.5,0.6-1.1,1.1-1.8,1.4
		C282.7,45.7,281.9,45.8,281.1,45.8z M281.3,45c0.8,0,1.5-0.1,2.1-0.4c0.6-0.3,1.1-0.7,1.5-1.1c0.2-0.3,0.3-0.5,0.3-0.8v-1.8
		c-0.5-0.2-1-0.3-1.5-0.4c-0.5-0.1-1-0.1-1.6-0.1c-0.5,0-1,0.1-1.4,0.2c-0.4,0.1-0.8,0.3-1.1,0.5c-0.3,0.2-0.5,0.4-0.7,0.7
		c-0.2,0.3-0.2,0.6-0.2,0.9c0,0.3,0.1,0.7,0.2,1s0.3,0.6,0.6,0.8c0.2,0.2,0.5,0.4,0.8,0.5C280.6,45,280.9,45,281.3,45z"/>
	<path fill="#BBD7F0" d="M294.1,36.2c-0.9,0-1.7,0.3-2.4,0.8c-0.7,0.5-1.2,1.2-1.5,2.1v6.4h-1V35.3h1v2.5c0.4-0.7,0.8-1.3,1.4-1.8
		c0.6-0.5,1.2-0.7,1.9-0.8c0.1,0,0.3,0,0.4,0c0.1,0,0.2,0,0.3,0V36.2z"/>
	<path fill="#BBD7F0" d="M303.4,45.6l-4-5.5l-2.4,2.2v3.3h-1V31.2h1v10.1l6.3-5.9h1.1l-4.3,4.2l4.4,6.1H303.4z"/>
</g>
</svg>
