<?xml version="1.0" encoding="utf-8"?>
<!-- Generator: Adobe Illustrator 23.0.2, SVG Export Plug-In . SVG Version: 6.00 Build 0)  -->
<svg version="1.1" id="Layer_1" xmlns="http://www.w3.org/2000/svg" xmlns:xlink="http://www.w3.org/1999/xlink" x="0px" y="0px"
	 viewBox="0 0 613.02 40.1" style="enable-background:new 0 0 613.02 40.1;" xml:space="preserve">
<style type="text/css">
	.st0{fill:#BBD7F0;}
</style>
<g>
	<path class="st0" d="M23.56,2.64h-10.4V29.2h-2.04V2.64H0.72V0.8h22.84V2.64z"/>
	<path class="st0" d="M27.36,3.68V0h2v3.68H27.36z M27.36,29.2V8.4h2v20.8C29.36,29.2,27.36,29.2,27.36,29.2z"/>
	<path class="st0" d="M44.48,29.6c-1.47,0-2.83-0.29-4.08-0.86s-2.34-1.36-3.26-2.36s-1.64-2.15-2.16-3.46s-0.78-2.71-0.78-4.2
		c0-1.47,0.26-2.85,0.78-4.14s1.23-2.43,2.14-3.4s1.98-1.74,3.22-2.3s2.58-0.84,4.02-0.84c1.47,0,2.83,0.29,4.08,0.86
		s2.33,1.35,3.24,2.32s1.61,2.11,2.12,3.4s0.76,2.66,0.76,4.1c0,0.13,0,0.3,0,0.5s-0.01,0.33-0.04,0.38H36.28
		c0.08,1.2,0.36,2.31,0.84,3.34s1.09,1.91,1.82,2.66s1.58,1.33,2.54,1.76S43.47,28,44.56,28c0.72,0,1.43-0.1,2.12-0.3
		c0.69-0.2,1.34-0.47,1.94-0.82s1.13-0.77,1.6-1.26c0.47-0.49,0.83-1.03,1.1-1.62l1.76,0.48c-0.29,0.75-0.73,1.43-1.3,2.06
		s-1.24,1.17-2,1.62s-1.59,0.81-2.5,1.06C46.37,29.47,45.44,29.6,44.48,29.6z M52.64,18c-0.08-1.23-0.35-2.35-0.82-3.36
		s-1.07-1.89-1.8-2.62s-1.58-1.31-2.54-1.72c-0.96-0.41-1.99-0.62-3.08-0.62c-1.09,0-2.12,0.21-3.08,0.62
		c-0.96,0.41-1.81,0.99-2.54,1.72c-0.73,0.73-1.32,1.61-1.76,2.64s-0.7,2.14-0.78,3.34H52.64z"/>
	<path class="st0" d="M68.8,10.2c-1.87,0.05-3.5,0.61-4.9,1.66s-2.38,2.5-2.94,4.34v13h-2V8.4h1.92v5.12
		c0.72-1.47,1.67-2.66,2.86-3.58c1.19-0.92,2.46-1.45,3.82-1.58c0.27-0.03,0.51-0.04,0.72-0.04s0.39,0,0.52,0V10.2z"/>
	<path class="st0" d="M82.44,10.2c-1.87,0.05-3.5,0.61-4.9,1.66s-2.38,2.5-2.94,4.34v13h-2V8.4h1.92v5.12
		c0.72-1.47,1.67-2.66,2.86-3.58s2.46-1.45,3.82-1.58c0.27-0.03,0.51-0.04,0.72-0.04s0.39,0,0.52,0
		C82.44,8.32,82.44,10.2,82.44,10.2z"/>
	<path class="st0" d="M91.08,29.6c-0.96,0-1.85-0.17-2.68-0.5s-1.55-0.79-2.18-1.36s-1.11-1.25-1.46-2.04
		c-0.35-0.79-0.52-1.63-0.52-2.54c0-0.91,0.21-1.73,0.64-2.48s1.02-1.39,1.78-1.94c0.76-0.55,1.67-0.97,2.74-1.28
		c1.07-0.31,2.24-0.46,3.52-0.46c1.12,0,2.25,0.1,3.38,0.3c1.13,0.2,2.15,0.47,3.06,0.82v-2.04c0-1.97-0.56-3.54-1.68-4.7
		s-2.64-1.74-4.56-1.74c-1.01,0-2.09,0.21-3.22,0.64c-1.13,0.43-2.29,1.04-3.46,1.84l-0.76-1.36c2.67-1.81,5.2-2.72,7.6-2.72
		c2.51,0,4.48,0.73,5.92,2.18c1.44,1.45,2.16,3.46,2.16,6.02V26.4c0,0.67,0.29,1,0.88,1v1.8c-0.13,0.03-0.27,0.05-0.42,0.06
		s-0.27,0.02-0.38,0.02c-0.53,0-0.96-0.18-1.28-0.54s-0.51-0.79-0.56-1.3v-1.72c-0.96,1.25-2.19,2.21-3.68,2.88
		C94.42,29.27,92.81,29.6,91.08,29.6z M91.48,28c1.55,0,2.97-0.29,4.26-0.88c1.29-0.59,2.29-1.36,2.98-2.32
		c0.43-0.56,0.64-1.09,0.64-1.6v-3.68c-0.96-0.37-1.96-0.65-3-0.84s-2.12-0.28-3.24-0.28c-1.04,0-1.99,0.11-2.84,0.34
		s-1.59,0.54-2.2,0.94s-1.09,0.89-1.42,1.46s-0.5,1.21-0.5,1.9s0.13,1.35,0.4,1.96c0.27,0.61,0.64,1.14,1.12,1.58
		s1.05,0.79,1.7,1.04C90.03,27.87,90.73,28,91.48,28z"/>
	<path class="st0" d="M116,29.6c-1.44,0-2.77-0.3-4-0.9s-2.29-1.4-3.18-2.4s-1.59-2.15-2.08-3.44c-0.49-1.29-0.74-2.63-0.74-4.02
		c0-1.44,0.24-2.81,0.72-4.12s1.15-2.45,2-3.44s1.86-1.77,3.02-2.36s2.43-0.88,3.82-0.88c0.91,0,1.76,0.13,2.56,0.4
		c0.8,0.27,1.55,0.62,2.24,1.06c0.69,0.44,1.32,0.95,1.88,1.54s1.04,1.21,1.44,1.88V0h2v26.4c0,0.67,0.28,1,0.84,1v1.8
		c-0.16,0.03-0.29,0.05-0.4,0.06s-0.21,0.02-0.32,0.02c-0.53,0-0.99-0.21-1.36-0.62c-0.37-0.41-0.56-0.85-0.56-1.3v-2.32
		c-0.85,1.39-1.99,2.49-3.42,3.32C119.03,29.19,117.54,29.6,116,29.6z M116.36,27.8c0.72,0,1.49-0.15,2.32-0.44s1.59-0.7,2.3-1.22
		c0.71-0.52,1.31-1.11,1.82-1.78s0.8-1.39,0.88-2.16v-6.84c-0.29-0.75-0.71-1.46-1.26-2.14s-1.17-1.27-1.86-1.76
		c-0.69-0.49-1.44-0.89-2.24-1.18c-0.8-0.29-1.57-0.44-2.32-0.44c-1.2,0-2.29,0.26-3.28,0.78s-1.83,1.2-2.52,2.04
		c-0.69,0.84-1.23,1.8-1.6,2.88s-0.56,2.19-0.56,3.34c0,1.2,0.21,2.33,0.64,3.4s1.02,2.01,1.78,2.84s1.64,1.48,2.64,1.96
		S115.18,27.8,116.36,27.8z"/>
	<path class="st0" d="M140.88,29.6c-1.47,0-2.83-0.29-4.08-0.86s-2.34-1.36-3.26-2.36s-1.64-2.15-2.16-3.46s-0.78-2.71-0.78-4.2
		c0-1.47,0.26-2.85,0.78-4.14s1.23-2.43,2.14-3.4s1.98-1.74,3.22-2.3s2.58-0.84,4.02-0.84c1.47,0,2.83,0.29,4.08,0.86
		s2.33,1.35,3.24,2.32s1.61,2.11,2.12,3.4s0.76,2.66,0.76,4.1c0,0.13,0,0.3,0,0.5s-0.01,0.33-0.04,0.38h-18.24
		c0.08,1.2,0.36,2.31,0.84,3.34s1.09,1.91,1.82,2.66c0.73,0.75,1.58,1.33,2.54,1.76c0.96,0.43,1.99,0.64,3.08,0.64
		c0.72,0,1.43-0.1,2.12-0.3c0.69-0.2,1.34-0.47,1.94-0.82s1.13-0.77,1.6-1.26s0.83-1.03,1.1-1.62l1.76,0.48
		c-0.29,0.75-0.73,1.43-1.3,2.06s-1.24,1.17-2,1.62s-1.59,0.81-2.5,1.06C142.77,29.47,141.84,29.6,140.88,29.6z M149.04,18
		c-0.08-1.23-0.35-2.35-0.82-3.36s-1.07-1.89-1.8-2.62s-1.58-1.31-2.54-1.72c-0.96-0.41-1.99-0.62-3.08-0.62s-2.12,0.21-3.08,0.62
		s-1.81,0.99-2.54,1.72c-0.73,0.73-1.32,1.61-1.76,2.64c-0.44,1.03-0.7,2.14-0.78,3.34H149.04z"/>
	<path class="st0" d="M172.36,29.2h-2V17.6c0-2.69-0.38-4.65-1.14-5.88s-1.97-1.84-3.62-1.84c-0.88,0-1.75,0.16-2.62,0.48
		s-1.67,0.77-2.42,1.36s-1.4,1.27-1.96,2.06c-0.56,0.79-0.97,1.63-1.24,2.54V29.2h-2V8.4h1.88v4.96c0.43-0.8,0.95-1.53,1.58-2.18
		c0.63-0.65,1.33-1.21,2.12-1.68s1.62-0.83,2.5-1.08s1.79-0.38,2.72-0.38c2.27,0,3.87,0.79,4.8,2.38c0.93,1.59,1.4,3.86,1.4,6.82
		V29.2z"/>
	<path class="st0" d="M187.48,28.2c-0.11,0.05-0.29,0.15-0.54,0.3s-0.57,0.29-0.96,0.42s-0.82,0.25-1.3,0.36s-1,0.16-1.56,0.16
		s-1.09-0.08-1.58-0.24s-0.93-0.4-1.3-0.72c-0.37-0.32-0.67-0.71-0.88-1.16s-0.32-0.99-0.32-1.6V10.04h-2.92V8.4h2.92V1.28h2V8.4
		h4.84v1.64h-4.84v15.2c0,0.77,0.27,1.35,0.8,1.74s1.13,0.58,1.8,0.58c0.83,0,1.54-0.14,2.14-0.42s0.97-0.46,1.1-0.54L187.48,28.2z"
		/>
	<path class="st0" d="M200.84,10.2c-1.87,0.05-3.5,0.61-4.9,1.66s-2.38,2.5-2.94,4.34v13h-2V8.4h1.92v5.12
		c0.72-1.47,1.67-2.66,2.86-3.58s2.46-1.45,3.82-1.58c0.27-0.03,0.51-0.04,0.72-0.04s0.39,0,0.52,0L200.84,10.2L200.84,10.2z"/>
	<path class="st0" d="M212.32,29.6c-1.47,0-2.82-0.29-4.06-0.86c-1.24-0.57-2.31-1.35-3.22-2.34s-1.61-2.13-2.12-3.44
		c-0.51-1.31-0.76-2.68-0.76-4.12c0-1.47,0.26-2.85,0.78-4.16s1.23-2.45,2.14-3.44s1.98-1.77,3.22-2.34s2.58-0.86,4.02-0.86
		s2.77,0.29,4,0.86s2.3,1.35,3.22,2.34s1.64,2.13,2.16,3.44s0.78,2.69,0.78,4.16c0,1.44-0.26,2.81-0.78,4.12s-1.23,2.45-2.14,3.44
		s-1.98,1.77-3.22,2.34C215.1,29.31,213.76,29.6,212.32,29.6z M204.16,18.92c0,1.23,0.21,2.38,0.64,3.46
		c0.43,1.08,1.01,2.02,1.74,2.82s1.59,1.43,2.58,1.9s2.04,0.7,3.16,0.7s2.17-0.23,3.16-0.7c0.99-0.47,1.85-1.11,2.6-1.94
		s1.33-1.78,1.76-2.86s0.64-2.25,0.64-3.5c0-1.23-0.21-2.38-0.64-3.46s-1.01-2.03-1.76-2.84s-1.61-1.46-2.58-1.94
		s-2.02-0.72-3.14-0.72s-2.17,0.24-3.16,0.72s-1.85,1.13-2.58,1.96s-1.32,1.79-1.76,2.9C204.38,16.53,204.16,17.69,204.16,18.92z"/>
	<path class="st0" d="M245.84,0.8h1.76l12,28.4h-2.16l-3.96-9.36h-13.56l-3.96,9.36h-2.2L245.84,0.8z M252.92,18.16l-6.2-14.88
		l-6.32,14.88H252.92z"/>
	<path class="st0" d="M273.16,10.2c-1.87,0.05-3.5,0.61-4.9,1.66s-2.38,2.5-2.94,4.34v13h-2V8.4h1.92v5.12
		c0.72-1.47,1.67-2.66,2.86-3.58c1.19-0.92,2.46-1.45,3.82-1.58c0.27-0.03,0.51-0.04,0.72-0.04s0.39,0,0.52,0V10.2z"/>
	<path class="st0" d="M274.47,18.72c0-1.47,0.25-2.85,0.76-4.16s1.21-2.44,2.12-3.4s1.99-1.72,3.24-2.28
		c1.25-0.56,2.63-0.84,4.12-0.84c1.89,0,3.56,0.43,5,1.28c1.44,0.85,2.52,2.04,3.24,3.56L291,13.52c-0.61-1.15-1.49-2.05-2.62-2.7
		s-2.38-0.98-3.74-0.98c-1.15,0-2.21,0.23-3.2,0.68c-0.99,0.45-1.85,1.08-2.58,1.88c-0.73,0.8-1.31,1.74-1.74,2.82
		s-0.64,2.25-0.64,3.5s0.22,2.43,0.66,3.54s1.03,2.07,1.76,2.88c0.73,0.81,1.6,1.46,2.6,1.94s2.06,0.72,3.18,0.72
		c0.72,0,1.43-0.11,2.14-0.32c0.71-0.21,1.36-0.49,1.96-0.84s1.12-0.75,1.56-1.22s0.74-0.95,0.9-1.46l1.96,0.56
		c-0.27,0.72-0.67,1.39-1.22,2.02c-0.55,0.63-1.19,1.17-1.94,1.62s-1.57,0.81-2.48,1.06s-1.84,0.38-2.8,0.38
		c-1.47,0-2.83-0.29-4.08-0.86s-2.34-1.36-3.26-2.36s-1.64-2.15-2.16-3.46C274.74,21.61,274.47,20.21,274.47,18.72z"/>
	<path class="st0" d="M314.71,29.2h-2V17.6c0-5.15-1.72-7.72-5.16-7.72c-0.85,0-1.69,0.16-2.5,0.48s-1.57,0.77-2.28,1.36
		c-0.71,0.59-1.33,1.27-1.86,2.06c-0.53,0.79-0.93,1.63-1.2,2.54V29.2h-2V0h2v13.36c0.85-1.63,2.03-2.92,3.54-3.88
		s3.13-1.44,4.86-1.44c1.15,0,2.13,0.21,2.96,0.64s1.51,1.04,2.06,1.84s0.95,1.77,1.2,2.9s0.38,2.41,0.38,3.82V29.2z"/>
	<path class="st0" d="M325.87,29.6c-0.96,0-1.85-0.17-2.68-0.5s-1.55-0.79-2.18-1.36s-1.11-1.25-1.46-2.04
		c-0.35-0.79-0.52-1.63-0.52-2.54c0-0.91,0.21-1.73,0.64-2.48c0.43-0.75,1.02-1.39,1.78-1.94c0.76-0.55,1.67-0.97,2.74-1.28
		c1.07-0.31,2.24-0.46,3.52-0.46c1.12,0,2.25,0.1,3.38,0.3c1.13,0.2,2.15,0.47,3.06,0.82v-2.04c0-1.97-0.56-3.54-1.68-4.7
		s-2.64-1.74-4.56-1.74c-1.01,0-2.09,0.21-3.22,0.64s-2.29,1.04-3.46,1.84l-0.76-1.36c2.67-1.81,5.2-2.72,7.6-2.72
		c2.51,0,4.48,0.73,5.92,2.18s2.16,3.46,2.16,6.02V26.4c0,0.67,0.29,1,0.88,1v1.8c-0.13,0.03-0.27,0.05-0.42,0.06
		c-0.15,0.01-0.27,0.02-0.38,0.02c-0.53,0-0.96-0.18-1.28-0.54s-0.51-0.79-0.56-1.3v-1.72c-0.96,1.25-2.19,2.21-3.68,2.88
		C329.22,29.27,327.61,29.6,325.87,29.6z M326.27,28c1.55,0,2.97-0.29,4.26-0.88c1.29-0.59,2.29-1.36,2.98-2.32
		c0.43-0.56,0.64-1.09,0.64-1.6v-3.68c-0.96-0.37-1.96-0.65-3-0.84s-2.12-0.28-3.24-0.28c-1.04,0-1.99,0.11-2.84,0.34
		s-1.59,0.54-2.2,0.94c-0.61,0.4-1.09,0.89-1.42,1.46c-0.33,0.57-0.5,1.21-0.5,1.9s0.13,1.35,0.4,1.96s0.64,1.14,1.12,1.58
		c0.48,0.44,1.05,0.79,1.7,1.04C324.83,27.87,325.53,28,326.27,28z"/>
	<path class="st0" d="M351.07,29.6c-1.47,0-2.83-0.29-4.08-0.86s-2.34-1.36-3.26-2.36s-1.64-2.15-2.16-3.46
		c-0.52-1.31-0.78-2.71-0.78-4.2c0-1.47,0.26-2.85,0.78-4.14s1.23-2.43,2.14-3.4s1.98-1.74,3.22-2.3s2.58-0.84,4.02-0.84
		c1.47,0,2.83,0.29,4.08,0.86s2.33,1.35,3.24,2.32s1.61,2.11,2.12,3.4s0.76,2.66,0.76,4.1c0,0.13,0,0.3,0,0.5s-0.01,0.33-0.04,0.38
		h-18.24c0.08,1.2,0.36,2.31,0.84,3.34s1.09,1.91,1.82,2.66s1.58,1.33,2.54,1.76c0.96,0.43,1.99,0.64,3.08,0.64
		c0.72,0,1.43-0.1,2.12-0.3c0.69-0.2,1.34-0.47,1.94-0.82s1.13-0.77,1.6-1.26s0.83-1.03,1.1-1.62l1.76,0.48
		c-0.29,0.75-0.73,1.43-1.3,2.06c-0.57,0.63-1.24,1.17-2,1.62s-1.59,0.81-2.5,1.06S352.03,29.6,351.07,29.6z M359.23,18
		c-0.08-1.23-0.35-2.35-0.82-3.36s-1.07-1.89-1.8-2.62c-0.73-0.73-1.58-1.31-2.54-1.72c-0.96-0.41-1.99-0.62-3.08-0.62
		s-2.12,0.21-3.08,0.62s-1.81,0.99-2.54,1.72c-0.73,0.73-1.32,1.61-1.76,2.64s-0.7,2.14-0.78,3.34H359.23z"/>
	<path class="st0" d="M374.27,29.6c-1.47,0-2.82-0.29-4.06-0.86s-2.31-1.35-3.22-2.34s-1.61-2.13-2.12-3.44
		c-0.51-1.31-0.76-2.68-0.76-4.12c0-1.47,0.26-2.85,0.78-4.16s1.23-2.45,2.14-3.44s1.98-1.77,3.22-2.34s2.58-0.86,4.02-0.86
		s2.77,0.29,4,0.86s2.3,1.35,3.22,2.34s1.64,2.13,2.16,3.44s0.78,2.69,0.78,4.16c0,1.44-0.26,2.81-0.78,4.12s-1.23,2.45-2.14,3.44
		s-1.98,1.77-3.22,2.34S375.71,29.6,374.27,29.6z M366.11,18.92c0,1.23,0.21,2.38,0.64,3.46c0.43,1.08,1.01,2.02,1.74,2.82
		s1.59,1.43,2.58,1.9s2.04,0.7,3.16,0.7s2.17-0.23,3.16-0.7c0.99-0.47,1.85-1.11,2.6-1.94s1.33-1.78,1.76-2.86
		c0.43-1.08,0.64-2.25,0.64-3.5c0-1.23-0.21-2.38-0.64-3.46c-0.43-1.08-1.01-2.03-1.76-2.84s-1.61-1.46-2.58-1.94
		s-2.02-0.72-3.14-0.72s-2.17,0.24-3.16,0.72s-1.85,1.13-2.58,1.96c-0.73,0.83-1.32,1.79-1.76,2.9S366.11,17.69,366.11,18.92z"/>
	<path class="st0" d="M389.39,0h2.04v25.08c0,0.77,0.22,1.39,0.66,1.84s1.05,0.68,1.82,0.68c0.29,0,0.65-0.03,1.06-0.1
		s0.79-0.17,1.14-0.3l0.4,1.6c-0.45,0.19-1.01,0.34-1.68,0.46s-1.24,0.18-1.72,0.18c-1.12,0-2.02-0.34-2.7-1.02
		c-0.68-0.68-1.02-1.59-1.02-2.74L389.39,0L389.39,0z"/>
	<path class="st0" d="M408.31,29.6c-1.47,0-2.82-0.29-4.06-0.86s-2.31-1.35-3.22-2.34s-1.61-2.13-2.12-3.44
		c-0.51-1.31-0.76-2.68-0.76-4.12c0-1.47,0.26-2.85,0.78-4.16s1.23-2.45,2.14-3.44s1.98-1.77,3.22-2.34s2.58-0.86,4.02-0.86
		s2.77,0.29,4,0.86s2.3,1.35,3.22,2.34s1.64,2.13,2.16,3.44s0.78,2.69,0.78,4.16c0,1.44-0.26,2.81-0.78,4.12s-1.23,2.45-2.14,3.44
		s-1.98,1.77-3.22,2.34S409.75,29.6,408.31,29.6z M400.15,18.92c0,1.23,0.21,2.38,0.64,3.46c0.43,1.08,1.01,2.02,1.74,2.82
		s1.59,1.43,2.58,1.9s2.04,0.7,3.16,0.7s2.17-0.23,3.16-0.7c0.99-0.47,1.85-1.11,2.6-1.94s1.33-1.78,1.76-2.86
		c0.43-1.08,0.64-2.25,0.64-3.5c0-1.23-0.21-2.38-0.64-3.46c-0.43-1.08-1.01-2.03-1.76-2.84s-1.61-1.46-2.58-1.94
		s-2.02-0.72-3.14-0.72s-2.17,0.24-3.16,0.72s-1.85,1.13-2.58,1.96c-0.73,0.83-1.32,1.79-1.76,2.9S400.15,17.69,400.15,18.92z"/>
	<path class="st0" d="M431.67,29.52c-1.44,0-2.76-0.3-3.96-0.9c-1.2-0.6-2.23-1.4-3.1-2.4s-1.55-2.14-2.04-3.42
		c-0.49-1.28-0.74-2.6-0.74-3.96c0-1.41,0.23-2.77,0.7-4.08s1.13-2.46,1.98-3.46s1.87-1.79,3.06-2.38s2.5-0.88,3.94-0.88
		c1.81,0,3.39,0.47,4.74,1.42c1.35,0.95,2.49,2.1,3.42,3.46V8.4h1.84v21.2c0,1.41-0.27,2.65-0.8,3.72s-1.25,1.95-2.14,2.66
		s-1.93,1.24-3.12,1.6c-1.19,0.36-2.43,0.54-3.74,0.54c-1.2,0-2.28-0.11-3.24-0.34s-1.81-0.55-2.54-0.96s-1.39-0.92-1.96-1.52
		c-0.57-0.6-1.07-1.26-1.5-1.98l1.36-0.92c0.83,1.41,1.95,2.45,3.36,3.1c1.41,0.65,2.92,0.98,4.52,0.98c1.07,0,2.07-0.15,3.02-0.44
		c0.95-0.29,1.77-0.73,2.48-1.3c0.71-0.57,1.27-1.29,1.68-2.14c0.41-0.85,0.62-1.85,0.62-3v-4.56c-0.85,1.36-1.99,2.45-3.4,3.26
		C434.7,29.11,433.22,29.52,431.67,29.52z M432.15,27.8c0.88,0,1.74-0.17,2.58-0.5s1.6-0.77,2.28-1.3c0.68-0.53,1.24-1.13,1.68-1.8
		s0.71-1.33,0.82-2v-6.84c-0.32-0.8-0.75-1.54-1.28-2.22s-1.14-1.26-1.82-1.74s-1.41-0.86-2.2-1.14c-0.79-0.28-1.58-0.42-2.38-0.42
		c-1.25,0-2.37,0.27-3.36,0.8s-1.82,1.23-2.5,2.08c-0.68,0.85-1.2,1.82-1.56,2.9s-0.54,2.17-0.54,3.26c0,1.2,0.21,2.33,0.64,3.4
		c0.43,1.07,1.01,2.01,1.76,2.84s1.63,1.48,2.64,1.96S431,27.8,432.15,27.8z"/>
	<path class="st0" d="M447.75,3.68V0h2v3.68H447.75z M447.75,29.2V8.4h2v20.8C449.75,29.2,447.75,29.2,447.75,29.2z"/>
	<path class="st0" d="M454.59,18.72c0-1.47,0.25-2.85,0.76-4.16s1.21-2.44,2.12-3.4s1.99-1.72,3.24-2.28
		c1.25-0.56,2.63-0.84,4.12-0.84c1.89,0,3.56,0.43,5,1.28c1.44,0.85,2.52,2.04,3.24,3.56l-1.96,0.64c-0.61-1.15-1.49-2.05-2.62-2.7
		s-2.38-0.98-3.74-0.98c-1.15,0-2.21,0.23-3.2,0.68c-0.99,0.45-1.85,1.08-2.58,1.88c-0.73,0.8-1.31,1.74-1.74,2.82
		s-0.64,2.25-0.64,3.5s0.22,2.43,0.66,3.54s1.03,2.07,1.76,2.88c0.73,0.81,1.6,1.46,2.6,1.94s2.06,0.72,3.18,0.72
		c0.72,0,1.43-0.11,2.14-0.32c0.71-0.21,1.36-0.49,1.96-0.84s1.12-0.75,1.56-1.22s0.74-0.95,0.9-1.46l1.96,0.56
		c-0.27,0.72-0.67,1.39-1.22,2.02c-0.55,0.63-1.19,1.17-1.94,1.62s-1.57,0.81-2.48,1.06s-1.84,0.38-2.8,0.38
		c-1.47,0-2.83-0.29-4.08-0.86s-2.34-1.36-3.26-2.36s-1.64-2.15-2.16-3.46C454.85,21.61,454.59,20.21,454.59,18.72z"/>
	<path class="st0" d="M482.95,29.6c-0.96,0-1.85-0.17-2.68-0.5s-1.55-0.79-2.18-1.36s-1.11-1.25-1.46-2.04
		c-0.35-0.79-0.52-1.63-0.52-2.54c0-0.91,0.21-1.73,0.64-2.48c0.43-0.75,1.02-1.39,1.78-1.94c0.76-0.55,1.67-0.97,2.74-1.28
		c1.07-0.31,2.24-0.46,3.52-0.46c1.12,0,2.25,0.1,3.38,0.3c1.13,0.2,2.15,0.47,3.06,0.82v-2.04c0-1.97-0.56-3.54-1.68-4.7
		s-2.64-1.74-4.56-1.74c-1.01,0-2.09,0.21-3.22,0.64s-2.29,1.04-3.46,1.84l-0.76-1.36c2.67-1.81,5.2-2.72,7.6-2.72
		c2.51,0,4.48,0.73,5.92,2.18s2.16,3.46,2.16,6.02V26.4c0,0.67,0.29,1,0.88,1v1.8c-0.13,0.03-0.27,0.05-0.42,0.06
		c-0.15,0.01-0.27,0.02-0.38,0.02c-0.53,0-0.96-0.18-1.28-0.54s-0.51-0.79-0.56-1.3v-1.72c-0.96,1.25-2.19,2.21-3.68,2.88
		C486.3,29.27,484.68,29.6,482.95,29.6z M483.35,28c1.55,0,2.97-0.29,4.26-0.88c1.29-0.59,2.29-1.36,2.98-2.32
		c0.43-0.56,0.64-1.09,0.64-1.6v-3.68c-0.96-0.37-1.96-0.65-3-0.84s-2.12-0.28-3.24-0.28c-1.04,0-1.99,0.11-2.84,0.34
		s-1.59,0.54-2.2,0.94c-0.61,0.4-1.09,0.89-1.42,1.46c-0.33,0.57-0.5,1.21-0.5,1.9s0.13,1.35,0.4,1.96s0.64,1.14,1.12,1.58
		c0.48,0.44,1.05,0.79,1.7,1.04C481.9,27.87,482.6,28,483.35,28z"/>
	<path class="st0" d="M499.47,0h2.04v25.08c0,0.77,0.22,1.39,0.66,1.84s1.05,0.68,1.82,0.68c0.29,0,0.65-0.03,1.06-0.1
		s0.79-0.17,1.14-0.3l0.4,1.6c-0.45,0.19-1.01,0.34-1.68,0.46s-1.24,0.18-1.72,0.18c-1.12,0-2.02-0.34-2.7-1.02
		c-0.68-0.68-1.02-1.59-1.02-2.74L499.47,0L499.47,0z"/>
	<path class="st0" d="M519.31,29.2V0.8h11.68c1.2,0,2.31,0.25,3.32,0.76s1.89,1.18,2.62,2.02s1.31,1.79,1.72,2.84
		s0.62,2.11,0.62,3.18c0,1.15-0.19,2.25-0.58,3.32s-0.93,2.01-1.64,2.84s-1.55,1.49-2.54,1.98s-2.08,0.74-3.28,0.74h-9.88V29.2
		H519.31z M521.35,16.6h9.8c0.93,0,1.77-0.19,2.52-0.58c0.75-0.39,1.38-0.91,1.9-1.56s0.92-1.4,1.2-2.24s0.42-1.71,0.42-2.62
		c0-0.93-0.17-1.82-0.5-2.66s-0.79-1.58-1.36-2.22s-1.24-1.15-2-1.52s-1.57-0.56-2.42-0.56h-9.56L521.35,16.6L521.35,16.6z"/>
	<path class="st0" d="M548.47,29.6c-0.96,0-1.85-0.17-2.68-0.5s-1.55-0.79-2.18-1.36s-1.11-1.25-1.46-2.04
		c-0.35-0.79-0.52-1.63-0.52-2.54c0-0.91,0.21-1.73,0.64-2.48s1.02-1.39,1.78-1.94c0.76-0.55,1.67-0.97,2.74-1.28
		c1.07-0.31,2.24-0.46,3.52-0.46c1.12,0,2.25,0.1,3.38,0.3c1.13,0.2,2.15,0.47,3.06,0.82v-2.04c0-1.97-0.56-3.54-1.68-4.7
		s-2.64-1.74-4.56-1.74c-1.01,0-2.09,0.21-3.22,0.64c-1.13,0.43-2.29,1.04-3.46,1.84l-0.76-1.36c2.67-1.81,5.2-2.72,7.6-2.72
		c2.51,0,4.48,0.73,5.92,2.18s2.16,3.46,2.16,6.02V26.4c0,0.67,0.29,1,0.88,1v1.8c-0.13,0.03-0.27,0.05-0.42,0.06
		c-0.15,0.01-0.27,0.02-0.38,0.02c-0.53,0-0.96-0.18-1.28-0.54s-0.51-0.79-0.56-1.3v-1.72c-0.96,1.25-2.19,2.21-3.68,2.88
		C551.82,29.27,550.2,29.6,548.47,29.6z M548.87,28c1.55,0,2.97-0.29,4.26-0.88c1.29-0.59,2.29-1.36,2.98-2.32
		c0.43-0.56,0.64-1.09,0.64-1.6v-3.68c-0.96-0.37-1.96-0.65-3-0.84s-2.12-0.28-3.24-0.28c-1.04,0-1.99,0.11-2.84,0.34
		c-0.85,0.23-1.59,0.54-2.2,0.94s-1.09,0.89-1.42,1.46c-0.33,0.57-0.5,1.21-0.5,1.9s0.13,1.35,0.4,1.96s0.64,1.14,1.12,1.58
		s1.05,0.79,1.7,1.04C547.42,27.87,548.12,28,548.87,28z"/>
	<path class="st0" d="M574.67,10.2c-1.87,0.05-3.5,0.61-4.9,1.66s-2.38,2.5-2.94,4.34v13h-2V8.4h1.92v5.12
		c0.72-1.47,1.67-2.66,2.86-3.58s2.46-1.45,3.82-1.58c0.27-0.03,0.51-0.04,0.72-0.04c0.21,0,0.39,0,0.52,0L574.67,10.2L574.67,10.2z
		"/>
	<path class="st0" d="M593.51,29.2l-8.12-11.12l-4.92,4.52v6.6h-2V0h2v20.4l12.64-11.96h2.32l-8.68,8.44l8.96,12.32
		C595.71,29.2,593.51,29.2,593.51,29.2z"/>
</g>
</svg>
